<svg xmlns="http://www.w3.org/2000/svg" viewBox="0 0 800 450">
  <rect width="800" height="450" fill="#0f1611"/>
  <rect width="800" height="40" fill="#131c16"/>
  <circle cx="20" cy="20" r="6" fill="#e8112d"/><circle cx="40" cy="20" r="6" fill="#fcd116"/><circle cx="60" cy="20" r="6" fill="#008751"/>
  <rect x="60" y="90" width="680" height="60" rx="10" fill="#131c16" stroke="#22322a"/>
  <circle cx="95" cy="120" r="10" fill="#22c55e" opacity="0.8"/>
  <text x="120" y="126" fill="#e8efe9" font-family="Arial, sans-serif" font-size="15" font-weight="bold">Aperçu du portfolio — section projets</text>
  <rect x="60" y="175" width="215" height="200" rx="12" fill="#131c16" stroke="#22322a"/>
  <rect x="60" y="175" width="215" height="6" rx="3" fill="#008751"/>
  <rect x="80" y="200" width="120" height="14" rx="4" fill="#9db3a6" opacity="0.6"/>
  <rect x="80" y="230" width="175" height="8" rx="3" fill="#9db3a6" opacity="0.3"/>
  <rect x="80" y="248" width="150" height="8" rx="3" fill="#9db3a6" opacity="0.3"/>
  <rect x="80" y="280" width="70" height="20" rx="10" fill="#0c221a" stroke="#22c55e" stroke-opacity="0.4"/>
  <rect x="300" y="175" width="215" height="200" rx="12" fill="#131c16" stroke="#22322a"/>
  <rect x="300" y="175" width="215" height="6" rx="3" fill="#fcd116"/>
  <rect x="320" y="200" width="130" height="14" rx="4" fill="#9db3a6" opacity="0.6"/>
  <rect x="320" y="230" width="175" height="8" rx="3" fill="#9db3a6" opacity="0.3"/>
  <rect x="320" y="248" width="150" height="8" rx="3" fill="#9db3a6" opacity="0.3"/>
  <rect x="320" y="280" width="70" height="20" rx="10" fill="#0c221a" stroke="#22c55e" stroke-opacity="0.4"/>
  <rect x="540" y="175" width="200" height="200" rx="12" fill="#131c16" stroke="#22322a"/>
  <rect x="540" y="175" width="200" height="6" rx="3" fill="#22c55e"/>
  <rect x="560" y="200" width="110" height="14" rx="4" fill="#9db3a6" opacity="0.6"/>
  <rect x="560" y="230" width="160" height="8" rx="3" fill="#9db3a6" opacity="0.3"/>
  <rect x="560" y="248" width="140" height="8" rx="3" fill="#9db3a6" opacity="0.3"/>
  <rect x="560" y="280" width="70" height="20" rx="10" fill="#0c221a" stroke="#22c55e" stroke-opacity="0.4"/>
  <text x="60" y="415" fill="#9db3a6" font-family="monospace" font-size="12" opacity="0.6">Ce portfolio · React + Supabase · déployé sur Vercel</text>
</svg>
